<svg width="1578" height="621" viewBox="0 0 1578 621" fill="none" xmlns="http://www.w3.org/2000/svg">
<path d="M696.57 123.905C697.667 123.905 700.252 123.905 704.325 123.905C708.555 123.748 713.177 123.67 718.19 123.67C723.203 123.67 728.217 123.67 733.23 123.67C738.243 123.513 742.317 123.435 745.45 123.435C765.503 123.435 780.543 127.743 790.57 136.36C800.597 144.82 805.61 156.648 805.61 171.845C805.61 188.608 799.97 201.22 788.69 209.68C777.41 217.983 761.978 222.135 742.395 222.135H735.345V283H696.57V123.905ZM735.345 196.52H745.215C750.542 196.52 755.163 194.718 759.08 191.115C762.997 187.355 764.955 181.558 764.955 173.725C764.955 167.145 763.31 161.427 760.02 156.57C756.887 151.713 751.56 149.207 744.04 149.05C742.003 149.05 740.28 149.128 738.87 149.285C737.46 149.285 736.285 149.363 735.345 149.52V196.52ZM848.874 123.905H883.419L941.699 283H902.454L890.704 244.695H839.239L827.019 283H788.479L848.874 123.905ZM882.009 216.025C880.442 211.482 878.797 206.782 877.074 201.925C875.507 196.912 873.941 192.055 872.374 187.355C870.964 182.655 869.632 178.268 868.379 174.195C867.126 169.965 866.029 166.44 865.089 163.62C864.149 166.597 863.052 170.2 861.799 174.43C860.546 178.503 859.136 182.89 857.569 187.59C856.159 192.29 854.592 197.068 852.869 201.925C851.302 206.782 849.736 211.482 848.169 216.025H882.009ZM955.896 123.905C957.306 123.905 960.126 123.905 964.356 123.905C968.586 123.748 973.286 123.67 978.456 123.67C983.626 123.67 988.64 123.67 993.496 123.67C998.353 123.513 1002.11 123.435 1004.78 123.435C1024.83 123.435 1039.87 127.273 1049.9 134.95C1059.92 142.627 1064.94 153.985 1064.94 169.025C1064.94 179.052 1062.51 187.355 1057.65 193.935C1052.79 200.358 1046.21 205.372 1037.91 208.975C1042.61 211.638 1046.76 215.163 1050.37 219.55C1053.97 223.937 1057.42 229.263 1060.71 235.53C1064 241.64 1067.29 248.69 1070.58 256.68C1074.02 264.67 1077.78 273.443 1081.86 283H1040.26C1035.25 272.033 1031.02 262.398 1027.57 254.095C1024.12 245.635 1020.91 238.585 1017.94 232.945C1014.96 227.148 1011.98 222.84 1009.01 220.02C1006.19 217.043 1002.74 215.555 998.666 215.555H994.671V283H955.896V123.905ZM994.671 191.35H1004.54C1010.02 191.35 1014.65 189.705 1018.41 186.415C1022.32 182.968 1024.28 177.642 1024.28 170.435C1024.28 167.458 1023.89 164.717 1023.11 162.21C1022.48 159.547 1021.38 157.275 1019.82 155.395C1018.25 153.358 1016.06 151.792 1013.24 150.695C1010.57 149.442 1007.28 148.815 1003.37 148.815H994.671V191.35ZM1191.27 123.905L1186.34 152.34H1149.68V283H1110.9V152.34H1073.07V123.905H1191.27Z" fill="#00CCCC"/>
<path d="M696.57 315.905C697.667 315.905 700.173 315.905 704.09 315.905C708.163 315.748 712.785 315.67 717.955 315.67C723.125 315.67 728.452 315.67 733.935 315.67C739.575 315.513 744.588 315.435 748.975 315.435C762.292 315.435 773.728 317.472 783.285 321.545C792.998 325.462 800.988 331.023 807.255 338.23C813.522 345.437 818.143 354.053 821.12 364.08C824.097 373.95 825.585 384.838 825.585 396.745C825.585 408.965 824.018 419.932 820.885 429.645C817.908 439.358 813.208 447.662 806.785 454.555C800.518 461.292 792.528 466.462 782.815 470.065C773.102 473.668 761.587 475.47 748.27 475.47C743.727 475.47 739.575 475.392 735.815 475.235C732.055 475.235 728.217 475.235 724.3 475.235C720.383 475.235 716.232 475.157 711.845 475C707.458 475 702.367 475 696.57 475V315.905ZM747.33 342.695C744.667 342.695 742.63 342.773 741.22 342.93C739.81 342.93 737.852 342.93 735.345 342.93V447.975C737.382 448.132 739.183 448.21 740.75 448.21C742.317 448.21 744.51 448.21 747.33 448.21C754.223 448.21 759.942 447.035 764.485 444.685C769.185 442.335 772.945 438.967 775.765 434.58C778.585 430.193 780.622 424.867 781.875 418.6C783.128 412.177 783.755 405.048 783.755 397.215C783.755 360.868 771.613 342.695 747.33 342.695ZM848.723 315.905H950.008V344.34H887.498V378.415H939.433L934.968 406.38H887.498V446.565H953.298V475H848.723V315.905ZM1017.55 315.905H1052.1L1110.38 475H1071.13L1059.38 436.695H1007.92L995.696 475H957.156L1017.55 315.905ZM1050.69 408.025C1049.12 403.482 1047.47 398.782 1045.75 393.925C1044.18 388.912 1042.62 384.055 1041.05 379.355C1039.64 374.655 1038.31 370.268 1037.06 366.195C1035.8 361.965 1034.71 358.44 1033.77 355.62C1032.83 358.597 1031.73 362.2 1030.48 366.43C1029.22 370.503 1027.81 374.89 1026.25 379.59C1024.84 384.29 1023.27 389.068 1021.55 393.925C1019.98 398.782 1018.41 403.482 1016.85 408.025H1050.69ZM1124.57 315.905H1163.35V446.565H1219.28V475H1124.57V315.905ZM1232.2 315.905H1333.49V344.34H1270.98V378.415H1322.91L1318.45 406.38H1270.98V446.565H1336.78V475H1232.2V315.905ZM1355.44 315.905C1356.85 315.905 1359.67 315.905 1363.9 315.905C1368.13 315.748 1372.83 315.67 1378 315.67C1383.17 315.67 1388.19 315.67 1393.04 315.67C1397.9 315.513 1401.66 315.435 1404.32 315.435C1424.38 315.435 1439.42 319.273 1449.44 326.95C1459.47 334.627 1464.48 345.985 1464.48 361.025C1464.48 371.052 1462.05 379.355 1457.2 385.935C1452.34 392.358 1445.76 397.372 1437.46 400.975C1442.16 403.638 1446.31 407.163 1449.91 411.55C1453.52 415.937 1456.96 421.263 1460.25 427.53C1463.54 433.64 1466.83 440.69 1470.12 448.68C1473.57 456.67 1477.33 465.443 1481.4 475H1439.81C1434.79 464.033 1430.56 454.398 1427.12 446.095C1423.67 437.635 1420.46 430.585 1417.48 424.945C1414.51 419.148 1411.53 414.84 1408.55 412.02C1405.73 409.043 1402.29 407.555 1398.21 407.555H1394.22V475H1355.44V315.905ZM1394.22 383.35H1404.09C1409.57 383.35 1414.19 381.705 1417.95 378.415C1421.87 374.968 1423.83 369.642 1423.83 362.435C1423.83 359.458 1423.44 356.717 1422.65 354.21C1422.03 351.547 1420.93 349.275 1419.36 347.395C1417.8 345.358 1415.6 343.792 1412.78 342.695C1410.12 341.442 1406.83 340.815 1402.91 340.815H1394.22V383.35Z" fill="black"/>
<path d="M287 416.5C287 431.136 275.136 443 260.5 443C245.864 443 234 431.136 234 416.5C234 401.864 245.864 390 260.5 390C275.136 390 287 401.864 287 416.5Z" fill="url(#paint0_linear_92_4)"/>
<path d="M484 416.5C484 431.136 472.136 443 457.5 443C442.864 443 431 431.136 431 416.5C431 401.864 442.864 390 457.5 390C472.136 390 484 401.864 484 416.5Z" fill="url(#paint1_linear_92_4)"/>
<path d="M395 180.5C395 195.136 383.136 207 368.5 207C353.864 207 342 195.136 342 180.5C342 165.864 353.864 154 368.5 154C383.136 154 395 165.864 395 180.5Z" fill="url(#paint2_linear_92_4)"/>
<path fill-rule="evenodd" clip-rule="evenodd" d="M367.452 75.0148C369.843 74.9188 376.921 75.3028 383.233 75.7827C389.546 76.3586 398.824 77.4145 403.798 78.2784C408.771 79.0463 414.51 80.1981 416.519 80.6781C419.006 81.254 420.632 82.5018 421.875 84.7095C423.214 86.9172 423.501 88.453 422.927 90.1808C422.545 91.5246 421.014 94.9802 419.675 97.8598C418.336 100.739 417.188 104.483 417.188 106.019C417.188 107.555 417.858 109.858 418.623 111.106C419.388 112.258 421.397 113.89 422.927 114.658C424.458 115.426 426.944 116.097 428.475 116.097C429.909 116.193 432.205 115.33 433.64 114.178C435.266 113.026 438.135 108.322 441.1 102.179C445.117 93.6364 446.265 92.0046 448.561 91.5246C449.995 91.1407 452.865 91.5246 454.969 92.1966C457.073 92.9645 464.151 96.132 470.751 99.3956C477.351 102.563 485.672 107.075 489.402 109.378C493.133 111.586 500.402 116.481 505.662 120.225C510.923 123.872 516.375 128.096 517.905 129.44C519.34 130.784 520.488 132.799 520.488 133.855C520.488 134.911 515.705 146.333 509.775 159.292C503.941 172.25 493.611 194.423 486.915 208.725C480.22 223.027 469.412 245.872 462.812 259.599C456.308 273.325 446.839 293.194 441.77 303.753C436.7 314.311 432.396 324.102 432.014 325.638C431.631 327.558 432.109 328.806 433.927 330.629C435.266 331.973 437.274 333.029 438.422 333.029C439.666 333.125 441.292 332.357 442.152 331.397C443.013 330.437 449.9 316.711 457.552 300.873C465.203 285.035 481.464 251.056 493.611 225.331C505.758 199.511 517.714 174.074 520.105 168.699C522.496 163.227 525.174 157.66 526.131 156.22C526.992 154.78 528.618 153.149 529.766 152.573C531.009 152.093 533.305 151.613 534.835 151.613C536.843 151.613 538.756 152.669 541.052 154.972C543.634 157.564 544.208 158.812 543.826 160.54C543.443 161.691 533.305 183.673 521.349 209.493C509.297 235.218 499.254 257.295 498.967 258.639C498.584 260.367 499.158 261.71 500.88 263.438C502.219 264.782 503.941 265.838 504.706 265.838C505.471 265.838 507.001 265.454 508.054 264.878C509.106 264.302 512.071 259.695 514.653 254.607C517.026 249.846 523.999 235.121 530.827 220.702L532.635 216.884C540 201.334 547.269 185.784 548.799 182.425C550.33 179.065 552.434 175.706 553.486 174.938C554.538 174.266 556.547 173.69 557.982 173.69C559.608 173.69 561.712 174.746 563.242 176.378C564.773 177.913 568.694 184.249 572.137 190.584C575.581 196.823 580.554 207.19 583.233 213.525C586.006 219.86 589.737 229.363 591.554 234.642C593.371 239.921 596.241 249.616 597.867 256.239C599.493 262.862 601.501 273.229 602.458 279.276C603.605 287.339 604.084 295.978 603.988 310.952C603.988 324.006 603.414 335.525 602.458 342.148C601.693 347.907 599.875 357.89 598.441 364.225C597.006 370.56 594.519 380.063 592.702 385.342C590.98 390.622 587.632 399.74 585.241 405.499C582.754 411.259 579.694 417.21 578.355 418.746C576.537 420.665 575.103 421.337 572.329 421.337C569.746 421.241 567.929 420.474 565.633 418.458C564.007 416.826 561.616 415.29 560.373 415.002C559.225 414.714 556.738 415.098 554.921 415.77C552.434 416.826 550.999 418.362 549.278 421.913C548.034 424.505 546.982 428.057 546.886 429.784C546.791 432.472 547.652 433.816 552.243 438.231C556.834 442.455 557.79 443.99 557.79 446.582C557.79 448.31 556.643 451.381 555.112 453.685C553.677 455.797 548.704 462.036 543.921 467.411C539.139 472.787 530.913 481.138 525.461 485.937C520.01 490.832 511.401 497.839 506.332 501.679C501.263 505.518 493.611 510.702 489.402 513.197C485.194 515.693 476.586 520.396 470.273 523.564C463.96 526.732 452.1 531.627 443.97 534.315C435.84 537.002 424.649 540.17 419.101 541.322C413.554 542.474 405.806 543.625 401.885 543.913C395.189 544.393 394.52 544.297 391.842 541.994C389.068 539.69 389.068 539.402 390.024 535.85C390.694 533.835 394.998 524.044 399.685 513.965C404.467 503.887 408.58 494.672 408.867 493.328C409.25 491.504 408.771 490.256 406.571 488.337C404.563 486.417 403.224 485.841 401.598 486.225C400.45 486.513 398.824 487.473 397.963 488.433C397.102 489.297 392.894 497.551 388.685 506.766C384.477 515.981 378.929 528.076 376.251 533.643C372.234 542.282 371.086 543.913 368.312 545.065C366.304 545.929 363.721 546.217 361.713 545.833C359.895 545.449 357.409 544.105 356.165 542.762C355.017 541.418 354.061 539.786 354.061 539.21C354.061 538.538 358.365 528.843 363.721 517.805C368.982 506.766 376.156 491.6 379.599 484.209C383.042 476.818 385.816 469.715 385.816 468.371C385.72 467.027 384.955 465.204 383.999 464.244C383.042 463.284 380.938 462.516 379.408 462.516C377.877 462.516 376.06 463.092 375.39 463.764C374.816 464.436 370.512 472.979 366.017 482.769C361.426 492.56 353.391 509.838 348.131 521.164C342.966 532.491 337.992 542.474 337.227 543.241C336.175 544.297 333.975 544.681 329.384 544.489C325.845 544.393 318.671 543.434 313.411 542.282C308.15 541.13 301.263 539.306 298.107 538.25C294.951 537.098 290.36 535.275 287.777 534.027C285.29 532.779 282.803 530.763 282.23 529.611C281.369 527.788 281.656 526.444 283.664 522.124C285.003 519.245 286.151 515.693 286.151 514.253C286.151 512.622 285.099 510.51 283.473 508.782C282.038 507.246 279.838 505.71 278.499 505.326C277.065 504.943 274.96 505.134 273.239 505.902C271.039 506.958 269.413 509.262 266.065 516.077C263.674 520.876 260.9 525.772 259.848 526.924C258.796 527.979 256.883 528.939 255.544 528.939C254.205 528.843 247.796 525.676 241.197 521.836C234.597 517.901 224.937 511.47 219.676 507.438C214.415 503.503 206.955 497.359 203.129 493.904C199.399 490.448 195.668 487.569 194.999 487.569C194.425 487.665 191.077 490.352 187.634 493.616C184.191 496.976 179.887 500.239 178.069 500.815C175.678 501.679 173.956 501.775 172.044 501.007C170.322 500.431 167.644 497.359 164.296 492.176C161.522 487.761 157.027 480.37 154.444 475.57C151.766 470.771 146.41 460.5 142.488 452.533C138.471 444.662 133.306 433.624 130.915 428.057C128.62 422.489 123.359 408.859 119.437 397.821C115.42 386.782 110.638 372.672 108.725 366.625C106.812 360.577 104.421 351.939 103.369 347.427C101.647 340.036 101.647 339.076 102.986 337.156C103.751 335.909 105.377 334.661 106.525 334.373C107.768 334.085 109.681 334.085 110.829 334.373C112.072 334.661 114.464 336.965 116.185 339.556C117.907 342.052 120.872 346.659 126.324 355.586L126.42 367.872C126.42 379.583 126.515 380.159 128.811 382.463C130.15 383.806 132.35 384.862 133.784 384.862C135.315 384.862 137.419 384.19 138.567 383.422C140.671 382.079 140.767 381.407 140.767 354.146L128.333 333.029C121.542 321.415 115.325 311.624 114.655 311.24C114.081 310.856 110.925 310.664 107.768 310.856C103.177 311.048 101.551 310.664 99.3514 309.128C97.4384 307.592 96.5776 305.961 96.195 302.601C95.8124 300.009 96.0037 292.138 96.6732 285.035C97.2471 277.932 98.3949 268.142 99.1601 263.438C100.021 258.735 101.934 249.136 103.464 242.321C104.995 235.506 107.864 224.179 109.968 217.364C112.072 210.549 115.803 199.223 118.29 192.407C120.776 185.592 123.455 178.585 124.22 177.049C125.081 175.514 126.42 173.402 127.28 172.442C128.141 171.482 129.767 170.714 130.915 170.81C132.158 170.81 142.68 174.746 154.349 179.545C166.113 184.344 184.095 191.544 194.329 195.383C204.564 199.319 214.32 202.774 215.85 203.062C218.433 203.446 219.867 202.486 229.241 194.327C235.075 189.24 240.814 183.961 242.058 182.521C244.353 179.929 244.353 179.737 243.971 162.075L243.969 161.991C243.588 144.413 243.584 144.216 240.91 140.478C239.093 137.887 238.423 136.063 238.806 134.335C239.093 132.991 242.44 128 246.17 123.296C249.996 118.593 255.257 112.45 257.935 109.858C260.518 107.171 265.109 103.139 267.978 100.835C270.848 98.5317 275.247 95.6521 277.734 94.4043C280.317 93.1564 286.534 90.5648 291.603 88.741C296.768 86.8213 305.663 84.0376 311.498 82.5018C317.332 81.062 326.514 79.1423 332.062 78.2784C337.61 77.4145 346.792 76.3586 352.626 75.8787C353.437 75.8244 354.268 75.7682 355.103 75.7117L355.116 75.7108C360.181 75.368 365.4 75.0148 367.452 75.0148ZM302.698 115.234C301.742 114.754 299.446 114.082 297.629 113.794C295.812 113.506 292.368 113.794 289.977 114.466C287.586 115.138 283.76 116.961 281.369 118.593C278.978 120.225 275.726 123.2 274.1 125.312C272.474 127.328 270.082 130.975 268.839 133.375C266.639 137.599 266.543 138.463 266.065 166.971L265.587 196.247C260.996 202.966 253.153 210.261 245.118 216.884C231.154 228.403 230.58 228.979 231.249 231.762C231.536 233.298 232.684 236.658 233.641 239.153C234.693 241.745 235.458 244.817 235.458 246.16C235.458 247.6 234.214 249.808 232.397 251.632C229.528 254.415 228.858 254.607 224.937 254.031C221.972 253.647 220.154 252.784 219.007 251.248C218.146 250 216.902 247.024 216.328 244.433C215.563 240.593 214.607 239.345 210.398 236.178C207.624 234.066 201.886 230.322 197.677 227.635C193.469 225.043 188.112 221.972 185.721 220.82C182.852 219.38 181.13 218.996 180.461 219.572C179.791 220.244 183.234 224.467 190.504 232.242C196.529 238.577 203.799 246.544 206.572 249.808C209.442 253.167 212.407 258.063 213.555 261.038C215.181 265.454 215.468 268.142 215.181 277.356L214.894 288.395C205.998 291.754 202.364 293.29 201.12 293.962C199.59 294.73 198.155 297.034 196.816 300.873C195.19 305.577 194.234 306.92 191.46 308.264C189.643 309.224 185.721 311.048 182.852 312.296C179.6 313.736 177.113 315.559 176.443 317.095C175.774 318.439 175.2 321.127 175.2 322.95C175.2 325.638 176.252 327.462 180.556 332.261C183.426 335.621 186.486 339.46 187.252 340.9C188.112 342.532 188.304 344.452 187.921 345.699C187.443 346.947 182.182 356.354 176.061 366.625C169.939 376.895 162.766 389.182 159.992 393.981L155.114 402.62C155.114 438.231 155.401 441.591 156.836 444.854C158.079 447.542 159.705 449.174 162.096 450.326C164.2 451.382 166.783 451.861 168.505 451.573C170.035 451.286 171.757 450.23 172.33 449.174C172.904 448.118 173.287 446.198 173.287 444.854C173.287 443.511 172.235 440.823 170.896 438.807C168.6 435.448 168.505 434.584 168.505 420.857L168.409 406.459C172.781 400.062 178.8 391.14 184.733 382.346L184.734 382.344L184.742 382.332L184.745 382.328L184.748 382.324L184.752 382.317L185.626 381.023C191.843 371.808 201.025 357.122 205.998 348.387C210.972 339.652 220.728 321.702 227.615 308.552C234.501 295.306 248.562 267.086 258.892 245.68C269.317 224.275 278.404 205.078 279.073 202.966C280.125 199.99 280.412 192.791 280.412 171.77V144.414C284.812 135.103 287.299 131.551 288.734 130.592C290.264 129.536 293.803 128.192 296.672 127.616C299.542 126.944 302.698 126.08 303.559 125.6C304.515 125.12 305.663 123.872 306.237 122.817C306.907 121.377 306.811 120.225 305.759 118.497C304.994 117.153 303.559 115.713 302.698 115.234ZM462.43 154.492C460.899 153.341 458.604 152.477 457.169 152.573C455.639 152.573 453.726 153.629 452.387 155.164C451.143 156.7 449.613 159.388 448.943 161.212C448.274 163.323 447.7 172.826 447.604 187.128L447.317 209.685C443.109 217.844 439.57 223.699 436.796 227.923C434.022 232.146 428.762 238.385 425.031 241.841C421.301 245.297 414.893 250.096 410.78 252.592C406.667 255.087 399.207 258.447 394.233 260.079C388.972 261.902 381.99 263.438 377.782 263.822L370.417 264.398C380.364 274.765 384.094 280.14 387.442 286.475C390.311 291.754 394.042 298.474 395.763 301.353C397.581 304.425 398.92 307.976 399.015 309.704C399.015 311.816 395.476 320.359 388.877 334.181C383.329 345.987 373.477 366.817 366.973 380.543C360.565 394.269 353.487 409.051 351.287 413.37L347.366 421.337C346.887 445.718 346.696 447.254 344.209 452.533C342.679 455.701 340.096 460.212 338.279 462.612C336.557 465.012 333.018 468.371 330.532 470.195C327.949 472.019 323.454 474.131 320.584 474.898C317.715 475.666 315.037 476.722 314.75 477.298C314.367 477.97 314.367 479.506 314.75 480.754C315.132 482.289 316.567 483.633 318.671 484.497C320.871 485.361 323.358 485.553 325.845 485.169C327.949 484.785 332.062 483.249 334.931 481.714C337.801 480.178 342.201 476.914 344.687 474.418C347.174 471.827 350.713 467.219 352.626 464.052C354.539 460.884 356.93 455.509 357.982 452.053C359.322 447.638 359.8 443.031 359.8 436.216V426.617C368.599 407.995 376.538 391.197 383.233 377.183C389.929 363.169 405.232 331.685 417.188 307.112C429.144 282.54 443.683 252.304 449.613 239.921L460.23 217.364V217.362C460.23 170.234 460.23 169.754 462.621 165.051C463.96 162.363 465.012 159.388 465.012 158.332C465.012 157.276 463.864 155.548 462.43 154.492ZM179.791 243.569C159.514 222.835 156.166 219.764 153.679 219.86C152.149 219.86 149.758 220.532 148.419 221.396C146.506 222.547 146.123 223.603 146.314 226.099C146.506 228.979 149.662 232.626 170.704 254.415C183.904 268.142 195.955 280.044 197.486 280.812C198.921 281.58 200.833 281.868 201.79 281.484C202.651 281.196 204.181 280.236 205.138 279.372C206.094 278.508 206.764 276.78 206.764 275.437C206.764 274.093 205.903 271.693 204.946 270.157C203.894 268.621 192.608 256.623 179.791 243.569ZM300.307 228.211C299.637 227.251 297.725 226.291 296.098 225.907C293.899 225.523 292.655 225.907 290.647 227.635C289.116 228.979 284.047 238.481 277.638 251.92C271.9 264.014 261.57 285.611 254.683 299.913C247.796 314.215 242.153 326.598 242.153 327.462C242.153 328.422 243.014 330.053 244.066 331.109C245.214 332.261 247.318 333.029 249.136 333.029C250.857 333.125 252.866 332.357 253.727 331.397C254.587 330.437 262.622 314.503 271.613 296.074C276.034 286.965 280.778 277.182 284.903 268.678L284.918 268.647L284.959 268.564L285.038 268.399L285.071 268.332C289.261 259.693 292.793 252.412 294.664 248.56C298.394 240.881 301.455 233.586 301.455 232.242C301.455 230.898 300.977 229.075 300.307 228.211ZM164.487 269.005C145.358 249.904 142.871 247.6 140.002 247.6C137.897 247.6 136.08 248.4 134.55 250C133.306 251.248 132.254 253.263 132.254 254.511C132.159 256.143 138.089 262.67 153.966 278.604C165.922 290.699 176.635 300.969 177.878 301.449C179.281 302.025 181.034 301.897 183.139 301.065C185.052 300.201 186.486 298.857 186.965 297.226C187.347 295.786 187.252 293.674 186.773 292.426C186.295 291.274 176.252 280.716 164.487 269.005ZM340.192 250.96C338.853 249.616 337.227 248.56 336.653 248.56C335.984 248.56 334.358 249.232 333.114 250C331.297 251.248 330.914 252.304 331.01 255.567C331.201 259.407 331.966 260.367 348.513 277.356C357.982 287.147 367.356 296.554 369.269 298.282C371.182 300.009 373.764 301.449 375.103 301.449C376.442 301.449 378.26 300.681 379.121 299.721C380.077 298.762 380.842 297.034 380.842 295.786C380.842 294.634 380.077 292.522 379.216 291.083C378.26 289.739 370.799 282.924 362.669 275.916C354.539 268.909 346.696 261.902 345.261 260.271C343.731 258.543 342.583 256.335 342.583 255.279C342.583 254.223 341.531 252.304 340.192 250.96ZM324.888 274.285C322.784 272.845 320.297 271.597 319.341 271.597C318.384 271.597 316.567 272.653 315.324 273.997C314.08 275.245 313.028 276.972 312.932 277.836C312.932 278.604 313.315 280.044 313.793 280.908C314.272 281.868 324.41 292.33 336.366 304.233C348.226 316.135 359.035 326.406 360.278 326.982C361.713 327.75 363.626 327.942 365.252 327.462C366.591 327.078 368.312 325.83 369.078 324.582C369.747 323.43 370.034 321.511 369.747 320.263C369.365 319.111 359.991 308.936 348.896 297.61C337.801 286.379 326.993 275.821 324.888 274.285ZM135.411 281.388C132.732 278.796 130.341 277.356 128.811 277.356C127.472 277.356 125.272 278.412 124.028 279.756C121.924 281.868 121.733 282.54 122.594 285.227C123.263 287.339 128.906 293.866 139.619 304.521C152.914 317.959 156.07 320.647 158.653 320.839C160.566 320.935 162.383 320.359 163.627 319.111C164.774 318.055 165.731 316.231 165.635 314.983C165.635 313.576 161.299 308.296 152.627 299.145C145.454 291.658 137.706 283.691 135.411 281.388ZM310.541 298.378C308.437 296.842 306.046 295.594 305.281 295.594C304.515 295.69 302.985 296.17 301.933 296.65C300.881 297.13 299.542 298.474 298.968 299.721C298.394 300.873 298.203 302.697 298.585 303.753C299.064 304.809 309.776 316.039 322.402 328.71C345.07 351.363 345.548 351.747 348.609 350.979C350.235 350.595 352.244 349.539 352.913 348.579C353.583 347.715 354.061 346.083 354.157 345.027C354.157 343.972 353.2 341.764 352.052 340.228C350.905 338.692 341.914 329.19 332.158 319.207C322.402 309.32 312.646 299.913 310.541 298.378ZM324.65 369.489C325.989 370.833 327.615 371.889 328.189 371.889C328.859 371.889 330.485 371.217 331.728 370.449C333.545 369.201 333.928 368.146 333.832 364.882C333.641 361.043 332.876 360.083 316.329 343.093C306.86 333.302 297.486 323.895 295.573 322.168C293.66 320.44 291.078 319 289.739 319C288.4 319 286.582 319.768 285.722 320.728C284.765 321.688 284 323.415 284 324.663C284 325.815 284.765 327.927 285.626 329.367C286.582 330.71 294.043 337.526 302.173 344.533C310.303 351.54 318.146 358.547 319.581 360.179C321.111 361.906 322.259 364.114 322.259 365.17C322.259 366.226 323.311 368.146 324.65 369.489ZM509.555 334.309C493.295 317.799 488.034 313 486.217 313C484.878 313 482.965 313.864 481.913 314.92C480.765 316.072 480 318.087 480 319.911C480 322.791 482.296 325.382 502.095 345.156C514.242 357.25 525.911 369.249 527.919 371.744C530.98 375.584 531.745 377.312 532.128 381.631C532.511 386.142 532.989 387.006 534.997 387.87C536.336 388.35 538.154 388.542 539.11 388.158C539.971 387.87 541.023 387.102 541.406 386.526C541.788 385.95 542.171 384.511 542.171 383.263C542.171 382.111 540.927 377.12 539.397 372.224C537.675 367.041 535.284 361.858 533.563 359.554C531.841 357.442 521.129 346.116 509.555 334.309ZM525.146 312.945C510.762 298.267 506.108 294 504.5 294C503.315 294 501.623 294.768 500.692 295.707C499.677 296.731 499 298.523 499 300.144C499 302.704 501.031 305.008 518.546 322.588C529.292 333.34 539.615 344.007 541.392 346.226C544.1 349.639 544.777 351.175 545.115 355.016C545.454 359.026 545.877 359.794 547.654 360.562C548.839 360.989 550.446 361.16 551.292 360.818C552.054 360.562 552.985 359.88 553.323 359.368C553.662 358.856 554 357.576 554 356.466C554 355.442 552.9 351.005 551.546 346.653C550.023 342.044 547.908 337.436 546.385 335.388C544.862 333.511 535.385 323.441 525.146 312.945ZM540.818 292.4C528.265 279.694 524.203 276 522.8 276C521.766 276 520.289 276.665 519.477 277.477C518.591 278.364 518 279.915 518 281.319C518 283.535 519.772 285.53 535.058 300.748C544.437 310.056 553.446 319.29 554.997 321.21C557.36 324.165 557.951 325.495 558.246 328.819C558.542 332.291 558.911 332.956 560.462 333.621C561.495 333.991 562.898 334.138 563.637 333.843C564.302 333.621 565.114 333.03 565.409 332.587C565.705 332.144 566 331.036 566 330.075C566 329.189 565.04 325.347 563.858 321.58C562.529 317.591 560.683 313.602 559.354 311.829C558.025 310.203 549.754 301.486 540.818 292.4ZM368.5 238C400.256 238 426 212.256 426 180.5C426 148.744 400.256 123 368.5 123C336.744 123 311 148.744 311 180.5C311 212.256 336.744 238 368.5 238ZM260.5 474C292.256 474 318 448.256 318 416.5C318 384.744 292.256 359 260.5 359C228.744 359 203 384.744 203 416.5C203 448.256 228.744 474 260.5 474ZM457.5 474C489.256 474 515 448.256 515 416.5C515 384.744 489.256 359 457.5 359C425.744 359 400 384.744 400 416.5C400 448.256 425.744 474 457.5 474Z" fill="url(#paint3_linear_92_4)"/>
<rect x="18" y="18" width="1542" height="585" stroke="#00CCCC" stroke-width="36"/>
<defs>
<linearGradient id="paint0_linear_92_4" x1="350" y1="75" x2="350" y2="546" gradientUnits="userSpaceOnUse">
<stop offset="0.232292" stop-color="#3D3D3D"/>
<stop offset="1" stop-color="#171717"/>
</linearGradient>
<linearGradient id="paint1_linear_92_4" x1="350" y1="75" x2="350" y2="546" gradientUnits="userSpaceOnUse">
<stop offset="0.232292" stop-color="#3D3D3D"/>
<stop offset="1" stop-color="#171717"/>
</linearGradient>
<linearGradient id="paint2_linear_92_4" x1="350" y1="75" x2="350" y2="546" gradientUnits="userSpaceOnUse">
<stop offset="0.232292" stop-color="#3D3D3D"/>
<stop offset="1" stop-color="#171717"/>
</linearGradient>
<linearGradient id="paint3_linear_92_4" x1="350" y1="75" x2="350" y2="546" gradientUnits="userSpaceOnUse">
<stop offset="0.232292" stop-color="#3D3D3D"/>
<stop offset="1" stop-color="#171717"/>
</linearGradient>
</defs>
</svg>
